<svg width="215" height="40" viewBox="0 0 215 40" fill="none" xmlns="http://www.w3.org/2000/svg">
<path d="M63.176 7.62939e-06C67.6987 7.62939e-06 70.8987 1.17334 72.776 3.52001C74.6533 5.82401 75.592 8.83201 75.592 12.544C75.592 16.256 74.6533 19.264 72.776 21.568C70.8987 23.872 67.6987 25.024 63.176 25.024H56.776V39.232H50.248V7.62939e-06H63.176ZM62.28 22.72C64.6267 22.72 66.3333 21.824 67.4 20.032C68.5093 18.24 69.064 15.744 69.064 12.544C69.064 9.38667 68.5093 6.91201 67.4 5.12001C66.3333 3.32801 64.6267 2.43201 62.28 2.43201H56.776V22.72H62.28Z" fill="black"/>
<path d="M109.64 39.232H102.6L97.096 25.6C96.584 24.3627 95.944 23.552 95.176 23.168C94.4507 22.7413 93.32 22.528 91.784 22.528H88.776V39.232H82.248V7.62939e-06H95.368C100.019 7.62939e-06 103.283 1.15201 105.16 3.45601C107.037 5.71734 107.976 8.46934 107.976 11.712C107.976 14.1013 107.4 16.2347 106.248 18.112C105.139 19.9467 103.197 21.2267 100.424 21.952C101.96 22.5067 103.069 23.5307 103.752 25.024L109.64 39.232ZM94.664 20.16C96.968 20.16 98.6747 19.3493 99.784 17.728C100.893 16.064 101.448 14.0587 101.448 11.712C101.448 9.10934 100.893 6.91201 99.784 5.12001C98.6747 3.32801 96.968 2.43201 94.664 2.43201H88.776V20.16H94.664Z" fill="black"/>
<path d="M131.322 39.232C125.946 39.232 121.957 38.3573 119.354 35.072C116.794 31.744 115.514 26.6027 115.514 19.648C115.514 12.608 116.794 7.44534 119.354 4.16001C121.914 0.874676 125.903 7.62939e-06 131.322 7.62939e-06C136.783 7.62939e-06 140.794 0.896009 143.354 4.22401C145.914 7.50934 147.194 12.6507 147.194 19.648C147.194 26.6027 145.893 31.744 143.29 35.072C140.73 38.3573 136.741 39.232 131.322 39.232ZM131.322 36.232C134.479 36.232 136.826 35.8187 138.362 32.96C139.898 30.0587 140.666 25.6213 140.666 19.648C140.666 13.5893 139.898 9.13068 138.362 6.27201C136.826 3.37068 134.479 2.73201 131.322 2.73201C128.165 2.73201 125.818 3.34934 124.282 6.20801C122.789 9.06667 122.042 13.5467 122.042 19.648C122.042 25.7067 122.789 30.1653 124.282 33.024C125.818 35.84 128.165 36.232 131.322 36.232Z" fill="black"/>
<path d="M151.8 39.34C151.267 39.34 151 38.9987 151 38.316V24.044C151 23.3613 151.267 23.02 151.8 23.02C152.355 23.02 152.632 23.3613 152.632 24.044V26.316C153.251 25.292 154.029 24.492 154.968 23.916C155.928 23.3187 156.941 23.02 158.008 23.02C159.053 23.02 159.96 23.308 160.728 23.884C161.517 24.4387 162.104 25.2387 162.488 26.284C163.213 25.2387 164.035 24.4387 164.952 23.884C165.869 23.308 166.829 23.02 167.832 23.02C169.517 23.02 170.765 23.5 171.576 24.46C172.387 25.42 172.792 26.9027 172.792 28.908V38.316C172.792 38.9987 172.515 39.34 171.96 39.34C171.427 39.34 171.16 38.9987 171.16 38.316V28.908C171.16 27.3293 170.904 26.2093 170.392 25.548C169.88 24.8867 169.027 24.556 167.832 24.556C166.765 24.556 165.805 24.8867 164.952 25.548C164.099 26.188 163.437 27.0947 162.968 28.268V38.316C162.968 38.9987 162.691 39.34 162.136 39.34C161.603 39.34 161.336 38.9987 161.336 38.316V29.324C161.336 27.788 161.048 26.6147 160.472 25.804C159.896 24.972 159.075 24.556 158.008 24.556C156.984 24.556 156.056 24.8333 155.224 25.388C154.413 25.9213 153.773 26.668 153.304 27.628C152.856 28.588 152.632 29.6653 152.632 30.86V38.316C152.632 38.9987 152.355 39.34 151.8 39.34Z" fill="#B23850"/>
<path d="M185.365 39.34C182.613 39.34 180.5 38.6253 179.028 37.196C177.578 35.7453 176.853 33.6867 176.853 31.02C176.853 29.3987 177.194 27.9907 177.876 26.796C178.559 25.58 179.54 24.652 180.82 24.012C182.101 23.3507 183.604 23.02 185.333 23.02C186.954 23.02 188.383 23.2867 189.62 23.82C190.879 24.332 191.861 25.0573 192.565 25.996C193.269 26.9347 193.621 28.012 193.621 29.228C193.621 30.06 193.407 30.7107 192.98 31.18C192.554 31.6493 191.946 31.884 191.157 31.884H178.58C178.58 33.74 179.178 35.1907 180.373 36.236C181.567 37.2813 183.231 37.804 185.365 37.804C186.709 37.804 187.839 37.6547 188.757 37.356C189.695 37.036 190.549 36.5133 191.317 35.788C191.658 35.4893 191.914 35.34 192.084 35.34C192.191 35.34 192.319 35.3933 192.469 35.5C192.703 35.692 192.82 35.8947 192.82 36.108C192.82 36.3 192.746 36.4707 192.597 36.62C191.786 37.516 190.762 38.1987 189.525 38.668C188.309 39.116 186.922 39.34 185.365 39.34ZM190.708 30.444C191.156 30.444 191.476 30.348 191.668 30.156C191.861 29.964 191.957 29.644 191.957 29.196C191.957 28.3213 191.668 27.532 191.092 26.828C190.538 26.1027 189.749 25.548 188.725 25.164C187.722 24.7587 186.591 24.556 185.333 24.556C183.178 24.556 181.514 25.068 180.34 26.092C179.188 27.116 178.612 28.5667 178.612 30.444H190.708Z" fill="#B23850"/>
<path d="M205.428 39.34C202.74 39.34 200.638 38.6253 199.124 37.196C197.63 35.7667 196.884 33.804 196.884 31.308C196.884 29.7507 197.214 28.3533 197.876 27.116C198.537 25.8573 199.508 24.8653 200.788 24.14C202.089 23.3933 203.657 23.02 205.492 23.02C207.113 23.02 208.489 23.34 209.62 23.98C210.75 24.5987 211.753 25.4627 212.628 26.572L212.66 15.756C212.66 15.0733 212.937 14.732 213.492 14.732C214.025 14.732 214.292 15.0733 214.292 15.756V38.316C214.292 38.9987 214.025 39.34 213.492 39.34C212.937 39.34 212.66 38.9987 212.66 38.316V35.724C211.892 36.9187 210.889 37.8253 209.652 38.444C208.414 39.0413 207.006 39.34 205.428 39.34ZM205.428 37.804C207.689 37.804 209.46 37.2173 210.74 36.044C212.02 34.8493 212.66 33.228 212.66 31.18C212.66 29.8147 212.318 28.6307 211.636 27.628C210.974 26.6253 210.089 25.868 208.98 25.356C207.892 24.8227 206.729 24.556 205.492 24.556C203.294 24.556 201.588 25.1747 200.372 26.412C199.156 27.6493 198.548 29.2813 198.548 31.308C198.548 33.5053 199.134 35.1373 200.308 36.204C201.502 37.2707 203.209 37.804 205.428 37.804Z" fill="#B23850"/>
<path d="M11.4763 2.49475L14.5 0.804788L17.5237 2.49476L20.4991 4.26839L20.5475 7.73199L20.4991 11.1956L17.5237 12.9692L14.5 14.6592L11.4763 12.9692L8.50086 11.1956L8.45255 7.73199L8.50086 4.26839L11.4763 2.49475Z" fill="#B23850" stroke="#B23850"/>
<path d="M4.47627 14.4947L7.5 12.8048L10.5237 14.4948L13.4991 16.2684L13.5475 19.732L13.4991 23.1956L10.5237 24.9692L7.5 26.6592L4.47627 24.9692L1.50086 23.1956L1.45255 19.732L1.50086 16.2684L4.47627 14.4947Z" fill="#B23850" stroke="#B23850"/>
<path d="M11.4763 26.4947L14.5 24.8048L17.5237 26.4948L20.4991 28.2684L20.5475 31.732L20.4991 35.1956L17.5237 36.9692L14.5 38.6592L11.4763 36.9692L8.50086 35.1956L8.45255 31.732L8.50086 28.2684L11.4763 26.4947Z" fill="#B23850" stroke="#B23850"/>
<path d="M25.4763 26.4947L28.5 24.8048L31.5237 26.4948L34.4991 28.2684L34.5475 31.732L34.4991 35.1956L31.5237 36.9692L28.5 38.6592L25.4763 36.9692L22.5009 35.1956L22.4525 31.732L22.5009 28.2684L25.4763 26.4947Z" fill="#B23850" stroke="#B23850"/>
<path d="M32.4763 14.4947L35.5 12.8048L38.5237 14.4948L41.4991 16.2684L41.5475 19.732L41.4991 23.1956L38.5237 24.9692L35.5 26.6592L32.4763 24.9692L29.5009 23.1956L29.4525 19.732L29.5009 16.2684L32.4763 14.4947Z" fill="#B23850" stroke="#B23850"/>
<path d="M18.4763 14.4947L21.5 12.8048L24.5237 14.4948L27.4991 16.2684L27.5475 19.732L27.4991 23.1956L24.5237 24.9692L21.5 26.6592L18.4763 24.9692L15.5009 23.1956L15.4525 19.732L15.5009 16.2684L18.4763 14.4947Z" stroke="#B23850"/>
<path d="M25.4763 2.49475L28.5 0.804788L31.5237 2.49476L34.4991 4.26839L34.5475 7.73199L34.4991 11.1956L31.5237 12.9692L28.5 14.6592L25.4763 12.9692L22.5009 11.1956L22.4525 7.73199L22.5009 4.26839L25.4763 2.49475Z" fill="#B23850" stroke="#B23850"/>
</svg>
