<svg width="219" height="207" viewBox="0 0 219 207" fill="none" xmlns="http://www.w3.org/2000/svg">
<path d="M57.6655 9.82408L74 0.574596L90.3345 9.82409L106.413 19.5345L106.674 38.5L106.413 57.4655L90.3345 67.1759L74 76.4254L57.6655 67.1759L41.5872 57.4655L41.326 38.5L41.5872 19.5345L57.6655 9.82408Z" fill="#B23850" stroke="#B23850"/>
<path d="M21.9448 74.8255L38.5 65.5728L55.0552 74.8255L71.3459 84.5364L71.6105 103.5L71.3459 122.464L55.0552 132.175L38.5 141.427L21.9448 132.174L5.65408 122.464L5.38955 103.5L5.65408 84.5364L21.9448 74.8255Z" fill="#B23850" stroke="#B23850"/>
<path d="M57.6655 139.824L74 130.575L90.3345 139.824L106.413 149.534L106.674 168.5L106.413 187.466L90.3345 197.176L74 206.425L57.6655 197.176L41.5872 187.466L41.326 168.5L41.5872 149.534L57.6655 139.824Z" fill="#B23850" stroke="#B23850"/>
<path d="M128.665 139.824L145 130.575L161.335 139.824L177.413 149.534L177.674 168.5L177.413 187.466L161.335 197.176L145 206.425L128.665 197.176L112.587 187.466L112.326 168.5L112.587 149.534L128.665 139.824Z" fill="#B23850" stroke="#B23850"/>
<path d="M163.945 74.8255L180.5 65.5728L197.055 74.8255L213.346 84.5364L213.61 103.5L213.346 122.464L197.055 132.175L180.5 141.427L163.945 132.174L147.654 122.464L147.39 103.5L147.654 84.5364L163.945 74.8255Z" fill="#B23850" stroke="#B23850"/>
<path d="M94.4449 77.4238L109.5 69.0096L124.555 77.4239L139.37 86.2548L139.61 103.5L139.37 120.745L124.555 129.576L109.5 137.99L94.4448 129.576L79.6304 120.745L79.3898 103.5L79.6304 86.2548L94.4449 77.4238Z" stroke="#B23850" stroke-width="7"/>
<path d="M128.665 9.82408L145 0.574596L161.335 9.82409L177.413 19.5345L177.674 38.5L177.413 57.4655L161.335 67.1759L145 76.4254L128.665 67.1759L112.587 57.4655L112.326 38.5L112.587 19.5345L128.665 9.82408Z" fill="#B23850" stroke="#B23850"/>
</svg>
